<mxfile host="app.diagrams.net" modified="2023-10-20T10:21:26.807Z" agent="Mozilla/5.0 (Windows NT 10.0; Win64; x64) AppleWebKit/537.36 (KHTML, like Gecko) Chrome/109.0.0.0 Safari/537.36" version="22.0.5" etag="07JVP67uDCuAsLFo80J8" type="github">
  <diagram name="Page-1" id="WbVtBurJv3IFlP2v2ALb">
    <mxGraphModel>
      <root>
        <mxCell id="0" />
        <mxCell id="1" parent="0" />
      </root>
    </mxGraphModel>
  </diagram>
</mxfile>
